<mxfile host="app.diagrams.net" modified="2023-11-18T11:59:24.154Z" agent="Mozilla/5.0 (X11; Linux x86_64; rv:109.0) Gecko/20100101 Firefox/119.0" etag="Yg8Q6FySPMM6f4KtaPhb" version="22.1.3" type="github">
  <diagram id="C5RBs43oDa-KdzZeNtuy" name="Page-1">
    <mxGraphModel dx="989" dy="523" grid="1" gridSize="10" guides="1" tooltips="1" connect="1" arrows="1" fold="1" page="1" pageScale="1" pageWidth="827" pageHeight="1169" math="0" shadow="0">
      <root>
        <mxCell id="WIyWlLk6GJQsqaUBKTNV-0" />
        <mxCell id="WIyWlLk6GJQsqaUBKTNV-1" parent="WIyWlLk6GJQsqaUBKTNV-0" />
        <mxCell id="WIyWlLk6GJQsqaUBKTNV-2" value="" style="rounded=0;html=1;jettySize=auto;orthogonalLoop=1;fontSize=11;endArrow=block;endFill=0;endSize=8;strokeWidth=1;shadow=0;labelBackgroundColor=none;edgeStyle=orthogonalEdgeStyle;" parent="WIyWlLk6GJQsqaUBKTNV-1" edge="1">
          <mxGeometry relative="1" as="geometry">
            <mxPoint x="104.6" y="110" as="sourcePoint" />
            <mxPoint x="104.63999999999996" y="160.03199999999993" as="targetPoint" />
          </mxGeometry>
        </mxCell>
        <mxCell id="THDxb9W78TxWYa1F1FSr-1" value="Welcome to ProjectCrafter" style="ellipse;whiteSpace=wrap;html=1;" vertex="1" parent="WIyWlLk6GJQsqaUBKTNV-1">
          <mxGeometry x="45" y="30" width="120" height="80" as="geometry" />
        </mxCell>
        <mxCell id="THDxb9W78TxWYa1F1FSr-2" value="Create project in..." style="rounded=0;whiteSpace=wrap;html=1;" vertex="1" parent="WIyWlLk6GJQsqaUBKTNV-1">
          <mxGeometry x="40" y="170" width="130" height="170" as="geometry" />
        </mxCell>
        <mxCell id="THDxb9W78TxWYa1F1FSr-7" value="Node" style="rhombus;whiteSpace=wrap;html=1;" vertex="1" parent="WIyWlLk6GJQsqaUBKTNV-1">
          <mxGeometry x="241" y="130" width="80" height="80" as="geometry" />
        </mxCell>
        <mxCell id="THDxb9W78TxWYa1F1FSr-10" value="" style="endArrow=classic;html=1;rounded=0;entryX=0;entryY=0.5;entryDx=0;entryDy=0;exitX=1;exitY=0;exitDx=0;exitDy=0;" edge="1" parent="WIyWlLk6GJQsqaUBKTNV-1" source="THDxb9W78TxWYa1F1FSr-2" target="THDxb9W78TxWYa1F1FSr-7">
          <mxGeometry width="50" height="50" relative="1" as="geometry">
            <mxPoint x="180" y="180" as="sourcePoint" />
            <mxPoint x="200" y="140" as="targetPoint" />
          </mxGeometry>
        </mxCell>
        <mxCell id="THDxb9W78TxWYa1F1FSr-11" value="Rust" style="rhombus;whiteSpace=wrap;html=1;" vertex="1" parent="WIyWlLk6GJQsqaUBKTNV-1">
          <mxGeometry x="241" y="215" width="80" height="80" as="geometry" />
        </mxCell>
        <mxCell id="THDxb9W78TxWYa1F1FSr-12" value="Go" style="rhombus;whiteSpace=wrap;html=1;" vertex="1" parent="WIyWlLk6GJQsqaUBKTNV-1">
          <mxGeometry x="241" y="299" width="80" height="80" as="geometry" />
        </mxCell>
        <mxCell id="THDxb9W78TxWYa1F1FSr-13" value="" style="endArrow=classic;html=1;rounded=0;entryX=0;entryY=0.5;entryDx=0;entryDy=0;exitX=1;exitY=0;exitDx=0;exitDy=0;" edge="1" parent="WIyWlLk6GJQsqaUBKTNV-1">
          <mxGeometry width="50" height="50" relative="1" as="geometry">
            <mxPoint x="170" y="255" as="sourcePoint" />
            <mxPoint x="241" y="255" as="targetPoint" />
          </mxGeometry>
        </mxCell>
        <mxCell id="THDxb9W78TxWYa1F1FSr-14" value="" style="endArrow=classic;html=1;rounded=0;entryX=0;entryY=0.5;entryDx=0;entryDy=0;exitX=1;exitY=0;exitDx=0;exitDy=0;" edge="1" parent="WIyWlLk6GJQsqaUBKTNV-1">
          <mxGeometry width="50" height="50" relative="1" as="geometry">
            <mxPoint x="170" y="340" as="sourcePoint" />
            <mxPoint x="241" y="340" as="targetPoint" />
          </mxGeometry>
        </mxCell>
        <mxCell id="THDxb9W78TxWYa1F1FSr-19" value="" style="endArrow=classic;html=1;rounded=0;entryX=0;entryY=0.5;entryDx=0;entryDy=0;exitX=1;exitY=0;exitDx=0;exitDy=0;" edge="1" parent="WIyWlLk6GJQsqaUBKTNV-1">
          <mxGeometry width="50" height="50" relative="1" as="geometry">
            <mxPoint x="321" y="169.77" as="sourcePoint" />
            <mxPoint x="392" y="169.77" as="targetPoint" />
          </mxGeometry>
        </mxCell>
        <mxCell id="THDxb9W78TxWYa1F1FSr-20" value="Select library/framenwork" style="rounded=0;whiteSpace=wrap;html=1;" vertex="1" parent="WIyWlLk6GJQsqaUBKTNV-1">
          <mxGeometry x="393" y="110" width="120" height="290" as="geometry" />
        </mxCell>
        <mxCell id="THDxb9W78TxWYa1F1FSr-21" value="" style="endArrow=classic;html=1;rounded=0;entryX=0;entryY=0.5;entryDx=0;entryDy=0;exitX=1;exitY=0;exitDx=0;exitDy=0;" edge="1" parent="WIyWlLk6GJQsqaUBKTNV-1">
          <mxGeometry width="50" height="50" relative="1" as="geometry">
            <mxPoint x="513" y="110" as="sourcePoint" />
            <mxPoint x="584" y="110" as="targetPoint" />
            <Array as="points">
              <mxPoint x="550" y="110" />
            </Array>
          </mxGeometry>
        </mxCell>
        <mxCell id="THDxb9W78TxWYa1F1FSr-23" value="React" style="rhombus;whiteSpace=wrap;html=1;" vertex="1" parent="WIyWlLk6GJQsqaUBKTNV-1">
          <mxGeometry x="583" y="95" width="80" height="30" as="geometry" />
        </mxCell>
        <mxCell id="THDxb9W78TxWYa1F1FSr-24" value="" style="endArrow=classic;html=1;rounded=0;entryX=0;entryY=0.5;entryDx=0;entryDy=0;exitX=1;exitY=0;exitDx=0;exitDy=0;" edge="1" parent="WIyWlLk6GJQsqaUBKTNV-1">
          <mxGeometry width="50" height="50" relative="1" as="geometry">
            <mxPoint x="513" y="140" as="sourcePoint" />
            <mxPoint x="584" y="140" as="targetPoint" />
            <Array as="points">
              <mxPoint x="550" y="140" />
            </Array>
          </mxGeometry>
        </mxCell>
        <mxCell id="THDxb9W78TxWYa1F1FSr-25" value="Vue.js" style="rhombus;whiteSpace=wrap;html=1;" vertex="1" parent="WIyWlLk6GJQsqaUBKTNV-1">
          <mxGeometry x="583" y="127" width="80" height="26" as="geometry" />
        </mxCell>
        <mxCell id="THDxb9W78TxWYa1F1FSr-26" value="Solid" style="rhombus;whiteSpace=wrap;html=1;" vertex="1" parent="WIyWlLk6GJQsqaUBKTNV-1">
          <mxGeometry x="583" y="155" width="80" height="26" as="geometry" />
        </mxCell>
        <mxCell id="THDxb9W78TxWYa1F1FSr-27" value="Vanilla" style="rhombus;whiteSpace=wrap;html=1;" vertex="1" parent="WIyWlLk6GJQsqaUBKTNV-1">
          <mxGeometry x="583" y="183" width="80" height="25" as="geometry" />
        </mxCell>
        <mxCell id="THDxb9W78TxWYa1F1FSr-28" value="Preact" style="rhombus;whiteSpace=wrap;html=1;" vertex="1" parent="WIyWlLk6GJQsqaUBKTNV-1">
          <mxGeometry x="583" y="210" width="80" height="25" as="geometry" />
        </mxCell>
        <mxCell id="THDxb9W78TxWYa1F1FSr-29" value="Lit" style="rhombus;whiteSpace=wrap;html=1;" vertex="1" parent="WIyWlLk6GJQsqaUBKTNV-1">
          <mxGeometry x="583" y="237" width="80" height="25" as="geometry" />
        </mxCell>
        <mxCell id="THDxb9W78TxWYa1F1FSr-30" value="Svelte" style="rhombus;whiteSpace=wrap;html=1;" vertex="1" parent="WIyWlLk6GJQsqaUBKTNV-1">
          <mxGeometry x="583" y="264" width="80" height="25" as="geometry" />
        </mxCell>
        <mxCell id="THDxb9W78TxWYa1F1FSr-31" value="Qwik" style="rhombus;whiteSpace=wrap;html=1;" vertex="1" parent="WIyWlLk6GJQsqaUBKTNV-1">
          <mxGeometry x="584" y="291" width="80" height="25" as="geometry" />
        </mxCell>
        <mxCell id="THDxb9W78TxWYa1F1FSr-32" value="Astro" style="rhombus;whiteSpace=wrap;html=1;" vertex="1" parent="WIyWlLk6GJQsqaUBKTNV-1">
          <mxGeometry x="584" y="318" width="80" height="25" as="geometry" />
        </mxCell>
        <mxCell id="THDxb9W78TxWYa1F1FSr-33" value="Next.js" style="rhombus;whiteSpace=wrap;html=1;" vertex="1" parent="WIyWlLk6GJQsqaUBKTNV-1">
          <mxGeometry x="584" y="345" width="80" height="25" as="geometry" />
        </mxCell>
        <mxCell id="THDxb9W78TxWYa1F1FSr-34" value="Remix" style="rhombus;whiteSpace=wrap;html=1;" vertex="1" parent="WIyWlLk6GJQsqaUBKTNV-1">
          <mxGeometry x="584" y="372" width="80" height="25" as="geometry" />
        </mxCell>
        <mxCell id="THDxb9W78TxWYa1F1FSr-35" value="" style="endArrow=classic;html=1;rounded=0;entryX=0;entryY=0.5;entryDx=0;entryDy=0;exitX=1;exitY=0;exitDx=0;exitDy=0;" edge="1" parent="WIyWlLk6GJQsqaUBKTNV-1">
          <mxGeometry width="50" height="50" relative="1" as="geometry">
            <mxPoint x="512" y="168" as="sourcePoint" />
            <mxPoint x="583" y="168" as="targetPoint" />
            <Array as="points">
              <mxPoint x="549" y="168" />
            </Array>
          </mxGeometry>
        </mxCell>
        <mxCell id="THDxb9W78TxWYa1F1FSr-36" value="" style="endArrow=classic;html=1;rounded=0;entryX=0;entryY=0.5;entryDx=0;entryDy=0;exitX=1;exitY=0;exitDx=0;exitDy=0;" edge="1" parent="WIyWlLk6GJQsqaUBKTNV-1">
          <mxGeometry width="50" height="50" relative="1" as="geometry">
            <mxPoint x="512" y="195" as="sourcePoint" />
            <mxPoint x="583" y="195" as="targetPoint" />
            <Array as="points">
              <mxPoint x="549" y="195" />
            </Array>
          </mxGeometry>
        </mxCell>
        <mxCell id="THDxb9W78TxWYa1F1FSr-37" value="" style="endArrow=classic;html=1;rounded=0;entryX=0;entryY=0.5;entryDx=0;entryDy=0;exitX=1;exitY=0;exitDx=0;exitDy=0;" edge="1" parent="WIyWlLk6GJQsqaUBKTNV-1">
          <mxGeometry width="50" height="50" relative="1" as="geometry">
            <mxPoint x="513" y="223" as="sourcePoint" />
            <mxPoint x="584" y="223" as="targetPoint" />
            <Array as="points">
              <mxPoint x="550" y="223" />
            </Array>
          </mxGeometry>
        </mxCell>
        <mxCell id="THDxb9W78TxWYa1F1FSr-38" value="" style="endArrow=classic;html=1;rounded=0;entryX=0;entryY=0.5;entryDx=0;entryDy=0;exitX=1;exitY=0;exitDx=0;exitDy=0;" edge="1" parent="WIyWlLk6GJQsqaUBKTNV-1">
          <mxGeometry width="50" height="50" relative="1" as="geometry">
            <mxPoint x="512" y="249" as="sourcePoint" />
            <mxPoint x="583" y="249" as="targetPoint" />
            <Array as="points">
              <mxPoint x="549" y="249" />
            </Array>
          </mxGeometry>
        </mxCell>
        <mxCell id="THDxb9W78TxWYa1F1FSr-39" value="" style="endArrow=classic;html=1;rounded=0;entryX=0;entryY=0.5;entryDx=0;entryDy=0;exitX=1;exitY=0;exitDx=0;exitDy=0;" edge="1" parent="WIyWlLk6GJQsqaUBKTNV-1">
          <mxGeometry width="50" height="50" relative="1" as="geometry">
            <mxPoint x="512" y="277" as="sourcePoint" />
            <mxPoint x="583" y="277" as="targetPoint" />
            <Array as="points">
              <mxPoint x="549" y="277" />
            </Array>
          </mxGeometry>
        </mxCell>
        <mxCell id="THDxb9W78TxWYa1F1FSr-40" value="" style="endArrow=classic;html=1;rounded=0;entryX=0;entryY=0.5;entryDx=0;entryDy=0;exitX=1;exitY=0;exitDx=0;exitDy=0;" edge="1" parent="WIyWlLk6GJQsqaUBKTNV-1">
          <mxGeometry width="50" height="50" relative="1" as="geometry">
            <mxPoint x="512" y="304" as="sourcePoint" />
            <mxPoint x="583" y="304" as="targetPoint" />
            <Array as="points">
              <mxPoint x="549" y="304" />
            </Array>
          </mxGeometry>
        </mxCell>
        <mxCell id="THDxb9W78TxWYa1F1FSr-41" value="" style="endArrow=classic;html=1;rounded=0;entryX=0;entryY=0.5;entryDx=0;entryDy=0;exitX=1;exitY=0;exitDx=0;exitDy=0;" edge="1" parent="WIyWlLk6GJQsqaUBKTNV-1">
          <mxGeometry width="50" height="50" relative="1" as="geometry">
            <mxPoint x="512" y="331" as="sourcePoint" />
            <mxPoint x="583" y="331" as="targetPoint" />
            <Array as="points">
              <mxPoint x="549" y="331" />
            </Array>
          </mxGeometry>
        </mxCell>
        <mxCell id="THDxb9W78TxWYa1F1FSr-42" value="" style="endArrow=classic;html=1;rounded=0;entryX=0;entryY=0.5;entryDx=0;entryDy=0;exitX=1;exitY=0;exitDx=0;exitDy=0;" edge="1" parent="WIyWlLk6GJQsqaUBKTNV-1">
          <mxGeometry width="50" height="50" relative="1" as="geometry">
            <mxPoint x="513" y="357" as="sourcePoint" />
            <mxPoint x="584" y="357" as="targetPoint" />
            <Array as="points">
              <mxPoint x="550" y="357" />
            </Array>
          </mxGeometry>
        </mxCell>
        <mxCell id="THDxb9W78TxWYa1F1FSr-43" value="" style="endArrow=classic;html=1;rounded=0;entryX=0;entryY=0.5;entryDx=0;entryDy=0;exitX=1;exitY=0;exitDx=0;exitDy=0;" edge="1" parent="WIyWlLk6GJQsqaUBKTNV-1">
          <mxGeometry width="50" height="50" relative="1" as="geometry">
            <mxPoint x="512" y="385" as="sourcePoint" />
            <mxPoint x="583" y="385" as="targetPoint" />
            <Array as="points">
              <mxPoint x="549" y="385" />
            </Array>
          </mxGeometry>
        </mxCell>
      </root>
    </mxGraphModel>
  </diagram>
</mxfile>
